<?xml version="1.0" encoding="utf-8"?>
<!-- Generator: Adobe Illustrator 25.0.0, SVG Export Plug-In . SVG Version: 6.00 Build 0)  -->
<svg version="1.1" xmlns="http://www.w3.org/2000/svg" xmlns:xlink="http://www.w3.org/1999/xlink" x="0px" y="0px"
	 viewBox="0 0 1200 1200" style="enable-background:new 0 0 1200 1200;" xml:space="preserve">
<style type="text/css">
	.st0{fill:#7BA4E0;}
	.st1{fill:#E8EBEF;}
	.st2{fill:#162864;}
	.st3{fill:#6694DD;}
</style>
<g id="BG">
</g>
<g id="Design">
	<g>
		<g>
			<g>
				<g>
					<path class="st0" d="M880.65,851.79c-1.35-1.5-3.66-1.62-5.16-0.27c-7.1,6.38-14.51,12.6-22.04,18.48
						c-1.59,1.24-1.87,3.54-0.62,5.13c0.72,0.93,1.79,1.41,2.88,1.41c0.79,0,1.58-0.25,2.25-0.78c7.65-5.98,15.2-12.31,22.42-18.81
						C881.88,855.6,882,853.29,880.65,851.79z M346.32,869.83c-7.51-5.88-14.92-12.1-22-18.49c-1.5-1.35-3.82-1.23-5.17,0.27
						c-1.35,1.5-1.23,3.81,0.27,5.16c7.21,6.5,14.75,12.83,22.4,18.82c0.67,0.52,1.46,0.78,2.25,0.78c1.09,0,2.16-0.49,2.88-1.41
						C348.2,873.37,347.92,871.07,346.32,869.83z M920.59,809.76c-1.55-1.3-3.85-1.1-5.15,0.45c-6.14,7.3-12.62,14.48-19.26,21.34
						c-1.4,1.45-1.37,3.77,0.09,5.17c0.71,0.69,1.62,1.03,2.54,1.03c0.95,0,1.91-0.37,2.63-1.11c6.75-6.99,13.35-14.3,19.59-21.73
						C922.33,813.37,922.13,811.06,920.59,809.76z M303.64,831.36c-6.63-6.86-13.11-14.05-19.25-21.36
						c-1.3-1.55-3.61-1.75-5.15-0.45c-1.55,1.3-1.75,3.61-0.45,5.15c6.25,7.44,12.84,14.76,19.59,21.74
						c0.71,0.75,1.67,1.12,2.63,1.12c0.91,0,1.83-0.34,2.54-1.03C305,835.13,305.04,832.82,303.64,831.36z M954.31,762.63
						c-1.71-1.08-3.97-0.56-5.04,1.15c-5.07,8.08-10.49,16.09-16.11,23.8c-1.19,1.63-0.83,3.92,0.8,5.11
						c0.65,0.47,1.41,0.7,2.15,0.7c1.13,0,2.25-0.52,2.96-1.5c5.72-7.85,11.24-16,16.39-24.22
						C956.54,765.96,956.02,763.7,954.31,762.63z M266.67,787.34c-5.62-7.72-11.04-15.74-16.11-23.83
						c-1.07-1.71-3.32-2.23-5.04-1.16c-1.71,1.07-2.23,3.33-1.15,5.04c5.15,8.23,10.66,16.39,16.39,24.26
						c0.71,0.98,1.83,1.5,2.95,1.5c0.75,0,1.5-0.22,2.15-0.7C267.5,791.26,267.86,788.98,266.67,787.34z M981.14,711.29
						c-1.85-0.82-4.01,0-4.84,1.84c-3.89,8.7-8.13,17.38-12.63,25.8c-0.95,1.78-0.27,3.99,1.51,4.94c0.55,0.3,1.14,0.44,1.72,0.44
						c1.3,0,2.57-0.71,3.22-1.94c4.58-8.56,8.9-17.4,12.86-26.25C983.81,714.27,982.98,712.11,981.14,711.29z M236.16,738.61
						c-4.5-8.44-8.74-17.14-12.63-25.86c-0.82-1.84-2.99-2.67-4.83-1.85c-1.85,0.83-2.67,2.99-1.85,4.83
						c3.95,8.88,8.28,17.73,12.85,26.32c0.66,1.23,1.93,1.94,3.23,1.94c0.58,0,1.17-0.14,1.72-0.43
						C236.43,742.61,237.11,740.39,236.16,738.61z M1000.52,656.69c-1.94-0.56-3.97,0.57-4.52,2.51
						c-2.64,9.16-5.63,18.36-8.91,27.33c-0.69,1.9,0.29,3.99,2.18,4.69c0.42,0.15,0.84,0.22,1.26,0.22c1.49,0,2.89-0.92,3.43-2.4
						c3.34-9.13,6.38-18.49,9.07-27.82C1003.58,659.28,1002.46,657.25,1000.52,656.69z M212.74,686.07
						c-3.26-8.96-6.25-18.16-8.87-27.34c-0.56-1.94-2.58-3.06-4.52-2.51c-1.94,0.56-3.07,2.58-2.51,4.52
						c2.67,9.34,5.71,18.71,9.03,27.83c0.54,1.49,1.94,2.41,3.44,2.41c0.41,0,0.83-0.07,1.25-0.22
						C212.45,690.07,213.43,687.97,212.74,686.07z M1012.08,599.89c-2.01-0.29-3.85,1.11-4.13,3.11
						c-1.12,7.95-2.48,15.95-4.06,23.83c-0.3,1.5-0.61,2.99-0.93,4.48c-0.42,1.97,0.84,3.92,2.82,4.34
						c0.25,0.05,0.51,0.08,0.76,0.08c1.69,0,3.21-1.18,3.57-2.9c0.38-1.76,0.74-3.53,1.09-5.31c1.55-7.78,2.89-15.66,3.99-23.5
						C1015.47,602.02,1014.08,600.17,1012.08,599.89z M196.94,630.83c-0.28-1.33-0.56-2.67-0.82-4c-1.62-8.04-3.01-16.2-4.14-24.31
						c-0.28-2-2.12-3.4-4.12-3.12c-2,0.28-3.4,2.13-3.12,4.13c1.11,8,2.48,16.05,4.05,23.99c0.32,1.62,0.65,3.23,0.99,4.83
						c0.37,1.72,1.89,2.9,3.58,2.9c0.25,0,0.5-0.03,0.76-0.08C196.09,634.75,197.36,632.81,196.94,630.83z M1018.22,543.1
						c-0.66-0.66-1.58-1.07-2.59-1.07c-2.02,0-3.65,1.63-3.66,3.65c-0.01,6.25-0.15,12.54-0.45,18.79c-0.08,1.9-0.18,3.8-0.29,5.68
						c-0.09,1.43-0.18,2.85-0.28,4.26c-0.04,0.52,0.04,1.02,0.2,1.48c0.47,1.34,1.7,2.33,3.2,2.43c0.08,0,0.17,0.01,0.25,0.01
						c1.52,0,2.84-0.93,3.38-2.28c0.15-0.35,0.24-0.73,0.27-1.12c0.11-1.55,0.21-3.1,0.3-4.66c0.11-1.92,0.21-3.84,0.3-5.76
						c0.28-6.27,0.43-12.56,0.44-18.82C1019.29,544.68,1018.88,543.77,1018.22,543.1z M188.03,545.2v-0.96
						c0-2.02-1.63-3.66-3.65-3.66c-1.92-0.13-3.66,1.62-3.66,3.64l-0.01,0.98c0,9.73,0.34,19.57,1.01,29.23
						c0.13,1.93,1.74,3.41,3.64,3.41c0.09,0,0.17-0.01,0.26-0.01c2.01-0.14,3.53-1.89,3.39-3.9
						C188.36,564.43,188.03,554.77,188.03,545.2z M1018.22,515.07c-0.52-7.29-1.23-14.61-2.13-21.87c-0.24-1.96-0.49-3.91-0.76-5.85
						c-0.28-2-2.12-3.4-4.12-3.12c-2.01,0.28-3.4,2.12-3.13,4.12c0.22,1.61,0.44,3.23,0.64,4.85c0.92,7.3,1.65,14.69,2.18,22.04
						c0.04,0.57,0.08,1.14,0.12,1.71c0.13,1.93,1.74,3.41,3.64,3.41c0.09,0,0.17-0.01,0.25-0.01c2.02-0.14,3.54-1.88,3.41-3.9
						C1018.29,515.99,1018.26,515.53,1018.22,515.07z M189.01,482.79c-1.99-0.28-3.85,1.11-4.13,3.11
						c-1.16,8.17-2.08,16.47-2.75,24.74c-0.13,1.45-0.24,2.9-0.34,4.35c-0.15,2.01,1.37,3.76,3.38,3.9
						c0.09,0.01,0.18,0.01,0.27,0.01c1.9,0,3.5-1.47,3.64-3.39c0.15-2.07,0.31-4.15,0.49-6.23c0.65-7.48,1.5-14.97,2.55-22.36
						C192.4,484.92,191.01,483.07,189.01,482.79z M1010.32,458.53c-2-9.5-4.36-19.06-7.02-28.4c-0.56-1.95-2.58-3.07-4.52-2.52
						c-1.94,0.55-3.07,2.58-2.52,4.52c2.62,9.18,4.94,18.57,6.9,27.9c0.36,1.73,1.88,2.91,3.57,2.91c0.25,0,0.51-0.03,0.76-0.08
						C1009.47,462.44,1010.73,460.51,1010.32,458.53z M201.64,426.22c-1.95-0.56-3.97,0.55-4.53,2.49
						c-2.7,9.34-5.09,18.89-7.12,28.38c-0.42,1.98,0.84,3.92,2.81,4.34c0.26,0.06,0.51,0.09,0.77,0.09c1.69,0,3.2-1.18,3.57-2.9
						c1.99-9.33,4.35-18.71,6.99-27.88C204.69,428.8,203.58,426.78,201.64,426.22z M994.3,402.28c-3.32-9.13-7-18.28-10.95-27.17
						c-0.82-1.84-2.99-2.67-4.83-1.86c-1.84,0.82-2.67,2.98-1.85,4.83c3.88,8.74,7.5,17.72,10.75,26.7
						c0.54,1.48,1.94,2.41,3.44,2.41c0.41,0,0.83-0.07,1.25-0.22C994,406.28,994.99,404.18,994.3,402.28z M222.05,372
						c-1.84-0.83-4,0-4.83,1.84c-3.97,8.85-7.68,17.96-11.02,27.07c-0.69,1.89,0.28,3.99,2.18,4.69c0.42,0.15,0.84,0.22,1.26,0.22
						c1.49,0,2.89-0.92,3.43-2.4c3.28-8.94,6.92-17.89,10.82-26.59C224.72,374.99,223.89,372.82,222.05,372z M970.53,348.78
						c-4.56-8.58-9.48-17.11-14.64-25.36c-1.07-1.72-3.32-2.24-5.04-1.17c-1.71,1.07-2.23,3.33-1.16,5.04
						c5.06,8.11,9.9,16.49,14.38,24.92c0.65,1.24,1.92,1.94,3.23,1.94c0.58,0,1.17-0.14,1.71-0.43
						C970.8,352.78,971.47,350.56,970.53,348.78z M249.84,321.17c-1.71-1.08-3.97-0.56-5.04,1.15c-5.18,8.23-10.12,16.73-14.7,25.28
						c-0.95,1.78-0.28,4,1.5,4.95c0.55,0.29,1.14,0.43,1.72,0.43c1.31,0,2.57-0.7,3.23-1.93c4.5-8.4,9.35-16.76,14.44-24.84
						C252.06,324.5,251.55,322.24,249.84,321.17z M939.53,299.14c-5.71-7.86-11.77-15.63-18.01-23.07c-1.29-1.55-3.6-1.75-5.15-0.45
						c-1.55,1.29-1.75,3.6-0.45,5.15c6.13,7.31,12.08,14.94,17.69,22.67c0.72,0.99,1.83,1.51,2.96,1.51c0.75,0,1.5-0.23,2.15-0.7
						C940.35,303.06,940.72,300.78,939.53,299.14z M284.43,274.67c-1.54-1.3-3.85-1.1-5.15,0.44c-6.26,7.43-12.34,15.17-18.07,23.01
						c-1.19,1.63-0.83,3.92,0.8,5.11c0.65,0.47,1.41,0.7,2.15,0.7c1.13,0,2.24-0.52,2.96-1.5c5.63-7.7,11.6-15.31,17.75-22.6
						C286.17,278.28,285.98,275.98,284.43,274.67z M901.96,254.31c-6.73-7-13.81-13.84-21.02-20.36c-1.49-1.35-3.81-1.23-5.16,0.27
						c-1.35,1.49-1.24,3.81,0.26,5.16c7.09,6.4,14.04,13.13,20.66,20c0.71,0.74,1.67,1.12,2.63,1.12c0.91,0,1.83-0.34,2.54-1.02
						C903.32,258.07,903.36,255.76,901.96,254.31z M325.15,233.4c-1.35-1.51-3.67-1.63-5.17-0.28
						c-7.23,6.49-14.32,13.32-21.08,20.29c-1.4,1.45-1.37,3.77,0.08,5.17c0.71,0.69,1.63,1.03,2.55,1.03c0.95,0,1.91-0.37,2.62-1.11
						c6.65-6.85,13.62-13.56,20.72-19.94C326.37,237.21,326.5,234.9,325.15,233.4z M858.57,215.11c-7.65-5.99-15.6-11.8-23.63-17.24
						c-1.67-1.13-3.95-0.7-5.08,0.97c-1.13,1.68-0.7,3.95,0.98,5.08c7.89,5.35,15.7,11.05,23.21,16.94
						c0.67,0.53,1.47,0.78,2.26,0.78c1.08,0,2.15-0.48,2.88-1.4C860.43,218.65,860.15,216.36,858.57,215.11z M371.2,198.14
						c-1.13-1.67-3.4-2.12-5.08-0.99c-8.05,5.42-16.02,11.2-23.69,17.18c-1.6,1.25-1.88,3.54-0.64,5.14c0.72,0.92,1.8,1.4,2.89,1.4
						c0.78,0,1.57-0.25,2.24-0.77c7.54-5.87,15.38-11.56,23.29-16.88C371.88,202.09,372.33,199.82,371.2,198.14z M810.18,182.32
						c-8.4-4.88-17.07-9.51-25.79-13.79c-1.81-0.88-4-0.14-4.89,1.68c-0.89,1.81-0.14,4,1.67,4.89c8.56,4.2,17.09,8.75,25.33,13.54
						c0.58,0.34,1.21,0.5,1.84,0.5c1.26,0,2.48-0.66,3.16-1.83C812.52,185.57,811.92,183.33,810.18,182.32z M421.72,169.62
						c-0.88-1.81-3.07-2.57-4.89-1.69c-8.74,4.25-17.44,8.87-25.87,13.73c-1.75,1.01-2.35,3.24-1.34,4.99
						c0.68,1.18,1.91,1.83,3.17,1.83c0.62,0,1.25-0.15,1.83-0.49c8.27-4.77,16.83-9.3,25.41-13.48
						C421.85,173.63,422.6,171.44,421.72,169.62z M757.72,156.59c-9-3.66-18.25-7.04-27.48-10.05c-1.91-0.63-3.98,0.42-4.61,2.34
						c-0.63,1.92,0.42,3.98,2.34,4.61c9.07,2.96,18.15,6.28,26.99,9.88c0.46,0.18,0.92,0.27,1.38,0.27c1.44,0,2.81-0.87,3.39-2.29
						C760.49,159.48,759.59,157.35,757.72,156.59z M475.76,148.44c-0.62-1.92-2.68-2.98-4.6-2.36c-9.26,2.99-18.53,6.34-27.55,9.97
						c-1.88,0.76-2.78,2.89-2.03,4.76c0.57,1.43,1.95,2.29,3.39,2.29c0.46,0,0.92-0.08,1.37-0.26c8.86-3.57,17.97-6.86,27.06-9.8
						C475.33,152.42,476.38,150.36,475.76,148.44z M702.12,138.44c-6.64-1.66-13.38-3.17-20.14-4.51c-2.82-0.56-5.65-1.09-8.47-1.59
						c-1.99-0.35-3.88,0.97-4.24,2.96c-0.35,1.99,0.98,3.89,2.97,4.24c3.03,0.53,6.06,1.11,9.09,1.72
						c6.38,1.27,12.75,2.7,19.02,4.27c0.3,0.08,0.6,0.11,0.89,0.11c1.64,0,3.13-1.1,3.54-2.77
						C705.27,140.92,704.08,138.93,702.12,138.44z M532.17,135.06c-0.35-1.99-2.24-3.32-4.23-2.98c-3.3,0.57-6.61,1.19-9.92,1.85
						c-6.28,1.24-12.54,2.63-18.72,4.16c-1.96,0.48-3.15,2.46-2.67,4.42c0.41,1.67,1.9,2.78,3.55,2.78c0.29,0,0.58-0.03,0.87-0.1
						c5.81-1.44,11.71-2.75,17.62-3.93c3.51-0.71,7.02-1.36,10.52-1.97C531.18,138.95,532.51,137.05,532.17,135.06z M644.54,128.25
						c-9.64-1.02-19.46-1.71-29.18-2.06c-2.03-0.06-3.71,1.5-3.78,3.52c-0.08,2.02,1.5,3.72,3.52,3.79
						c9.55,0.34,19.2,1.02,28.67,2.03c0.13,0.01,0.26,0.02,0.39,0.02c1.85,0,3.43-1.4,3.63-3.28
						C648.01,130.26,646.55,128.46,644.54,128.25z M586.11,126.14c-9.72,0.32-19.54,0.98-29.19,1.96c-2.01,0.21-3.47,2-3.27,4.01
						c0.2,1.88,1.78,3.28,3.64,3.28c0.12,0,0.25,0,0.37-0.01c9.48-0.97,19.13-1.62,28.68-1.93c2.02-0.07,3.61-1.76,3.54-3.77
						C589.82,127.66,588.13,126.07,586.11,126.14z"/>
				</g>
			</g>
			<g>
				<path class="st1" d="M576.01,710.91v-177c0-0.01,0-0.01,0-0.01V379.17c0-0.08-0.02-0.17-0.04-0.26c0-0.22,0-0.44-0.01-0.66
					c-0.09-5.09-1.29-10.13-3.44-14.88c-3.72-8.29-10.31-15.65-18.89-20.61c-14.83-8.55-31.56-8.46-42.98-6.87
					c-18.83,2.62-35.21,10.79-46.12,23.01c-11.35,12.71-16.21,29.93-13.13,45.19c-22.66-3.67-46.7,3.65-64.63,20.16
					c-19.28,17.76-27.64,42.91-22.34,67.3c2.92,13.4,10.62,24.68,21.07,31.19c0.22,0.14,0.46,0.27,0.68,0.41
					c-0.09,0.15-0.2,0.3-0.3,0.45c-3.64,5.5-6.15,12.08-7.3,19.31c-1.25,7.85-0.72,15.74,1.43,22.83
					c-20.63,13.63-33.23,37.07-33.71,62.94c-0.47,24.47,9.92,47.21,28.03,61.84c1.33,1.09,2.72,2.13,4.14,3.12
					c3.15,2.18,10.11,6.64,18.82,9.77c5.56,2.01,11.84,3.48,18.29,3.48c2.33,0,4.66-0.2,7-0.63c-0.47,3.39-0.6,6.87-0.42,10.39
					c0.17,3.35,0.63,6.75,1.37,10.16c1.69,7.81,4.87,15.65,9.41,23.09c6.14,10.06,13.3,18.86,21.05,26.05
					c9.05,8.4,18.92,14.62,28.97,18.09c1.37,0.48,2.75,0.91,4.12,1.28c9.51,2.56,18.98,3.83,28.02,3.83
					c16.37,0,31.38-4.13,42.7-12.12c10.05-7.07,18.8-24.76,18.19-36.61c0-0.02,0.01-0.04,0.01-0.05v-37.48
					C576.16,712.24,576.17,711.56,576.01,710.91z"/>
			</g>
			<g>
				<g>
					<path class="st2" d="M853.21,667.02c-0.47-24.44-11.74-46.73-30.38-60.58c-1.09-0.83-2.21-1.61-3.34-2.36
						c0.17-0.54,0.32-1.09,0.46-1.64c1.77-6.65,2.13-13.93,0.97-21.18c-1.18-7.43-3.79-14.16-7.59-19.77
						c10.79-6.41,18.79-17.89,21.76-31.59c5.29-24.38-3.06-49.54-22.34-67.3c-1.82-1.68-3.71-3.26-5.64-4.74
						c-8.3-6.36-17.61-10.95-27.3-13.6c-10.37-2.86-21.17-3.52-31.69-1.82c0.61-3.01,0.91-6.12,0.91-9.23c0-3.2-0.32-6.44-0.93-9.64
						c-1.83-9.47-6.31-18.72-13.11-26.33c-3.22-3.6-6.92-6.85-11.01-9.72c-6.84-4.77-14.78-8.47-23.49-10.88
						c-3.74-1.05-7.63-1.85-11.62-2.41c-11.43-1.58-28.15-1.68-42.99,6.87c-13.71,7.91-22.32,21.96-22.34,36.15
						c-0.01,0.09-0.02,0.18-0.02,0.26v154.74c0,0,0,0,0,0.01v177c-0.15,0.65-0.15,1.32,0,1.96v37.52c-0.09,1.84,0.04,3.83,0.37,5.9
						c0.87,5.53,3.15,11.62,6.27,17.09c3.18,5.63,7.25,10.6,11.55,13.63c11.34,7.98,26.33,12.12,42.7,12.12
						c9.06,0,18.53-1.26,28.02-3.83c20.09-5.43,39.82-21.99,54.14-45.42c8.61-14.09,12.29-29.58,10.36-43.64
						c2.34,0.43,4.69,0.64,7,0.64c16.53,0,31.95-9.66,37.11-13.25C841.67,717.6,853.7,693.31,853.21,667.02z"/>
				</g>
			</g>
			<g>
				<path class="st2" d="M594.51,731.46V399.77c0-0.09-0.02-0.18-0.04-0.26c-0.01-14.12-8.44-28.09-21.94-36.15
					c-0.2-0.13-0.41-0.25-0.61-0.37c-14.94-8.62-31.78-8.53-43.27-6.93c-18.93,2.63-35.4,10.85-46.37,23.14
					c-11.29,12.65-16.22,29.73-13.36,44.98c-22.61-3.47-46.53,3.91-64.38,20.35c-19.4,17.87-27.8,43.17-22.47,67.7
					c0.79,3.67,1.95,7.19,3.42,10.5c0.13,0.3,0.26,0.58,0.39,0.86c4.01,8.6,10.19,15.71,17.76,20.31
					c-3.7,5.57-6.26,12.21-7.42,19.53c-1.24,7.81-0.76,15.66,1.33,22.73c-20.58,13.72-33.13,37.2-33.63,63.09
					c-0.28,14.86,3.41,29.07,10.4,41.25c5.43,9.49,12.87,17.74,21.96,24.08c4.11,2.87,14.71,9.58,27.24,12.21
					c3.27,0.7,6.67,1.11,10.12,1.11c2.16,0,4.35-0.17,6.53-0.52c-1.77,13.99,1.91,29.36,10.46,43.33c1.09,1.78,2.21,3.52,3.35,5.22
					c14.02,20.76,32.37,35.34,51.04,40.39c9.54,2.57,19.05,3.84,28.13,3.84c16.46,0,31.55-4.16,42.96-12.19
					c10.14-7.14,18.98-24.99,18.36-36.96c0-0.01,0.01-0.04,0.01-0.05v-37.43C594.65,732.85,594.66,732.15,594.51,731.46z
					 M570.66,800.21c-15.42,10.85-39.03,13.45-63.14,6.93c-8.36-2.26-16.7-6.77-24.55-13.12c-8.94-7.22-17.24-16.84-24.22-28.27
					c-7.53-12.3-10.76-25.7-9.1-37.69c1.82-13.25,10.07-24.86,21.02-29.56c0.05-0.01,0.08-0.05,0.12-0.06
					c2.76,2.11,5.77,3.9,8.96,5.25c5.27,2.23,11.01,3.33,16.74,3.33c8.69,0,17.41-2.5,24.56-7.36c2.16-1.48,2.73-4.43,1.25-6.59
					c-1.48-2.17-4.43-2.74-6.59-1.26c-9.27,6.29-21.93,7.53-32.25,3.14c-10.31-4.39-18.2-14.37-20.09-25.41
					c-1.89-11.05,2.23-23.09,10.51-30.64c1.94-1.77,2.07-4.77,0.3-6.71c-1.77-1.94-4.77-2.07-6.71-0.31
					c-10.59,9.69-15.87,25.1-13.45,39.25c1.26,7.44,4.68,14.48,9.52,20.31c-9.52,5.26-17.06,14.56-20.92,25.55
					c-6.34,2.08-13.5,1.59-20.45-0.37c-7.42-2.07-14.63-5.8-20.44-9.85c-1.54-1.06-3.01-2.2-4.43-3.4
					c-15.45-12.88-24.29-32.65-23.88-53.94c0.42-22.16,10.82-42.25,27.94-54.38c4.87,8.64,12.55,15.17,21.46,18.02
					c3.35,1.07,6.81,1.59,10.23,1.59c7.36,0,14.51-2.42,20.05-7c2.02-1.68,2.3-4.66,0.63-6.68c-1.67-2.02-4.66-2.3-6.68-0.63
					c-5.56,4.61-13.92,6.05-21.31,3.67c-7.09-2.26-13.44-7.97-17-15.28c-3.35-6.87-4.46-15.34-3.12-23.83
					c1.52-9.59,6.08-17.97,12.5-23c6.98-5.47,16.46-6.88,23.59-3.53c2.37,1.11,5.2,0.09,6.32-2.28c1.11-2.37,0.09-5.21-2.28-6.32
					c-10.3-4.84-23.75-2.98-33.49,4.65c-0.8,0.64-1.57,1.33-2.33,2.03c-9.16-4.98-16.04-14.57-18.57-26.26
					c-4.68-21.52,2.48-42.91,19.63-58.7c16.41-15.13,38.55-21.53,59.09-17.48c-5.18,9.07-5.48,20.83-0.09,29.97
					c0.89,1.5,2.47,2.34,4.1,2.34c0.81,0,1.64-0.21,2.4-0.65c2.27-1.33,3.02-4.24,1.69-6.51c-4.51-7.66-3.01-18.48,3.4-24.63
					c6.41-6.16,17.29-7.22,24.75-2.4c2.21,1.43,5.15,0.79,6.57-1.42c1.42-2.21,0.79-5.15-1.42-6.57c-9.82-6.33-23.11-5.93-32.71,0.5
					c-3.34-12.91,0.68-28.02,10.62-39.14c9.47-10.62,23.89-17.75,40.6-20.06c10.01-1.39,24.6-1.52,37.21,5.74
					c3.32,1.91,6.28,4.31,8.8,7.03c5.95,6.42,9.39,14.63,9.01,22.53c-0.01,0.18,0.01,0.35,0.02,0.53v64.43
					c-3.01,0.63-6.02,1-8.99,1.13c-7.31,0.33-14.34-0.83-20.5-3.46c-10.03-4.29-17.88-12.88-20.49-22.42
					c-2.74-10.05,0.53-21.35,7.97-27.49c2.02-1.68,2.3-4.66,0.64-6.68c-1.68-2.03-4.66-2.31-6.68-0.64
					c-10.39,8.56-14.84,23.57-11.09,37.31c3.4,12.45,13.1,23.17,25.92,28.66c6.67,2.86,14.16,4.3,21.92,4.3
					c0.77,0,1.55-0.01,2.31-0.05c2.98-0.11,5.98-0.44,8.99-0.97v78.12c-1.89,4.25-5.09,8.11-8.99,11.21
					c-6.27,4.96-14.34,7.92-21.69,7.3c-11.84-1-22.7-10.21-25.8-21.67c4.81-4.81,8.55-10.67,10.67-17.19
					c5.17-15.84,0.51-34.15-11.6-45.59c-1.9-1.79-4.91-1.71-6.71,0.19c-1.81,1.91-1.72,4.91,0.19,6.72
					c9.34,8.82,13.08,23.52,9.09,35.73c-3.99,12.22-15.68,21.88-28.43,23.49c-12.75,1.62-26.47-4.83-33.37-15.67
					c-1.42-2.21-4.35-2.86-6.57-1.45c-2.21,1.42-2.86,4.35-1.45,6.55c8.01,12.56,22.54,20.32,37.35,20.32c1.75,0,3.5-0.11,5.23-0.33
					c6.32-0.8,12.35-3.06,17.68-6.42c5.3,13.47,18.34,23.56,32.91,24.8c0.9,0.07,1.81,0.11,2.72,0.11c6.72,0,13.63-2.04,19.78-5.53
					c3.26-1.84,6.29-4.09,8.99-6.65v151.36c-2.76-2.07-5.79-3.8-8.99-5.16c-10.19-4.38-22.03-5.02-32.31-0.9
					c-17.39,6.97-28.74,26.93-25.82,45.45c0.37,2.35,2.39,4.02,4.69,4.02c0.25,0,0.5-0.02,0.74-0.06c2.59-0.41,4.36-2.83,3.96-5.43
					c-2.27-14.32,6.52-29.77,19.97-35.17c9.26-3.71,20.18-2.43,28.78,2.59c3.46,2.02,6.53,4.64,8.99,7.79v37.01
					c0,0.06,0.02,0.11,0.02,0.15c0,0.06-0.01,0.11-0.01,0.17C585.54,779.2,578.9,794.41,570.66,800.21z"/>
				<path class="st2" d="M536.98,660.62c12.85,0,25.63-7.35,31.86-18.62c6.73-12.17,5.51-28.38-2.95-39.41
					c-1.6-2.08-4.58-2.47-6.66-0.88c-2.08,1.59-2.47,4.58-0.88,6.66c6.24,8.13,7.13,20.07,2.17,29.04
					c-4.96,8.97-15.55,14.56-25.74,13.61c-10.2-0.95-19.57-8.42-22.78-18.15c-0.82-2.49-3.51-3.84-6-3.02
					c-2.49,0.82-3.84,3.51-3.02,6c4.35,13.21,17.06,23.33,30.91,24.63C534.92,660.58,535.95,660.62,536.98,660.62z"/>
				<path class="st1" d="M836.15,649.26c-0.3-15.72-5.04-30.54-13.33-42.82c-0.91-1.37-1.87-2.7-2.88-4
					c-4.85-6.29-10.71-11.8-17.42-16.27c2.09-7.07,2.57-14.93,1.33-22.73c-1.16-7.32-3.72-13.96-7.42-19.53
					c10.7-6.52,18.61-18.01,21.57-31.67c4.11-18.92,0.05-38.29-10.92-54.37c-3.25-4.77-7.11-9.25-11.55-13.33
					c-13.45-12.36-30.31-19.61-47.47-20.96c-5.64-0.44-11.31-0.25-16.91,0.61c2.28-12.1-0.37-25.38-7.2-36.67
					c-1.77-2.92-3.83-5.72-6.15-8.31c-10.97-12.29-27.44-20.51-46.37-23.14c-11.49-1.59-28.33-1.69-43.27,6.93
					c-13.85,7.99-22.54,22.18-22.55,36.51c-0.01,0.08-0.04,0.17-0.04,0.26v331.69c-0.15,0.68-0.14,1.39,0,2.08v37.42
					c0,0.01,0.01,0.04,0.01,0.05c-0.61,11.97,8.22,29.82,18.36,36.96c1.95,1.37,4.02,2.63,6.18,3.77
					c10.44,5.56,23.14,8.42,36.78,8.42c9.08,0,18.59-1.26,28.13-3.84c20.19-5.46,40.02-22.08,54.39-45.6
					c8.55-13.97,12.23-29.33,10.46-43.33c2.18,0.35,4.37,0.52,6.53,0.52c16.66,0,32.18-9.71,37.36-13.32
					C824.56,700.11,836.66,675.7,836.15,649.26z M798.36,706.79c-11.27,7.85-27.79,14.51-40.89,10.21
					c-3.86-11.01-11.41-20.3-20.92-25.55c4.84-5.83,8.25-12.87,9.52-20.31c2.42-14.15-2.86-29.56-13.45-39.25
					c-1.94-1.76-4.94-1.63-6.71,0.31c-1.77,1.94-1.64,4.94,0.3,6.71c8.28,7.56,12.4,19.59,10.51,30.64
					c-1.89,11.04-9.78,21.02-20.09,25.41c-10.32,4.39-22.97,3.15-32.25-3.14c-2.16-1.48-5.11-0.91-6.59,1.26
					c-1.48,2.16-0.91,5.11,1.25,6.59c7.16,4.85,15.87,7.36,24.56,7.36c5.74,0,11.48-1.1,16.74-3.33c3.19-1.36,6.19-3.14,8.96-5.25
					c0.04,0.01,0.07,0.05,0.12,0.06c10.95,4.7,19.2,16.31,21.02,29.56c1.65,12-1.57,25.39-9.1,37.69
					c-13.12,21.48-30.9,36.56-48.77,41.39c-24.11,6.52-47.72,3.92-63.14-6.93c-1.97-1.39-3.86-3.32-5.56-5.56
					c-5.44-7.11-9.19-17.35-8.79-23.37c0-0.06-0.01-0.11-0.01-0.17c0-0.05,0.02-0.09,0.02-0.15v-37.01
					c2.31-2.98,5.18-5.48,8.41-7.44c8.68-5.31,19.89-6.73,29.34-2.94c13.46,5.4,22.25,20.84,19.98,35.17
					c-0.4,2.6,1.37,5.02,3.96,5.43c0.25,0.04,0.5,0.06,0.74,0.06c2.3,0,4.32-1.66,4.69-4.02c2.92-18.52-8.43-38.48-25.82-45.45
					c-10.46-4.19-22.57-3.46-32.89,1.15c-2.99,1.32-5.81,2.96-8.41,4.91V569.46c2.53,2.41,5.37,4.55,8.41,6.32
					c6.29,3.68,13.43,5.86,20.36,5.86c0.91,0,1.82-0.04,2.72-0.11c14.57-1.24,27.61-11.32,32.91-24.8
					c5.33,3.37,11.35,5.62,17.68,6.42c1.74,0.22,3.48,0.33,5.23,0.33c14.81,0,29.34-7.76,37.35-20.32c1.41-2.21,0.76-5.14-1.45-6.55
					c-2.22-1.41-5.15-0.76-6.57,1.45c-6.9,10.84-20.63,17.29-33.37,15.67c-12.75-1.61-24.44-11.27-28.43-23.49
					c-3.99-12.21-0.25-26.91,9.09-35.73c1.9-1.81,2-4.81,0.19-6.72c-1.81-1.9-4.81-1.98-6.71-0.19
					c-12.1,11.44-16.77,29.76-11.6,45.59c2.13,6.52,5.87,12.39,10.67,17.19c-3.11,11.45-13.96,20.66-25.8,21.67
					c-7.58,0.65-15.93-2.52-22.27-7.77c-3.64-3-6.61-6.68-8.41-10.73v-78.12c2.81,0.5,5.62,0.81,8.41,0.96
					c0.97,0.04,1.94,0.06,2.89,0.06c7.76,0,15.24-1.44,21.92-4.3c12.82-5.49,22.52-16.21,25.92-28.66
					c3.76-13.75-0.7-28.75-11.09-37.31c-2.02-1.68-5.01-1.39-6.68,0.64c-1.66,2.02-1.38,5.01,0.64,6.68
					c7.44,6.14,10.71,17.44,7.97,27.49c-2.61,9.54-10.46,18.14-20.49,22.42c-6.32,2.7-13.57,3.85-21.08,3.44
					c-2.78-0.15-5.6-0.53-8.41-1.11v-64.43c0.01-0.18,0.04-0.35,0.02-0.53c-0.53-11.23,6.62-23.1,17.81-29.56
					c12.61-7.26,27.19-7.13,37.21-5.74c11.49,1.59,21.89,5.46,30.35,11.17c3.85,2.6,7.29,5.57,10.25,8.89
					c9.93,11.12,13.96,26.24,10.62,39.14c-9.6-6.42-22.88-6.83-32.71-0.5c-2.21,1.42-2.85,4.36-1.42,6.57
					c1.42,2.21,4.36,2.83,6.57,1.42c7.46-4.82,18.34-3.77,24.75,2.4c6.41,6.15,7.91,16.97,3.4,24.63c-1.33,2.27-0.58,5.17,1.69,6.51
					c0.76,0.44,1.58,0.65,2.4,0.65c1.63,0,3.21-0.84,4.1-2.34c5.38-9.14,5.09-20.9-0.11-29.97c6.26-1.23,12.66-1.5,19-0.84
					c10.77,1.11,21.37,4.87,30.78,11.05c3.26,2.13,6.38,4.56,9.32,7.26c17.15,15.79,24.3,37.18,19.63,58.7
					c-2.54,11.69-9.41,21.28-18.57,26.26c-0.77-0.7-1.52-1.39-2.33-2.03c-9.74-7.63-23.19-9.49-33.49-4.65
					c-2.37,1.11-3.39,3.94-2.28,6.32c1.12,2.37,3.94,3.39,6.32,2.28c7.13-3.35,16.61-1.94,23.59,3.53
					c6.42,5.03,10.98,13.41,12.51,23c1.35,8.49,0.24,16.96-3.12,23.83c-3.57,7.31-9.92,13.02-17,15.28
					c-7.39,2.37-15.75,0.92-21.31-3.67c-2.02-1.68-5.02-1.39-6.68,0.63c-1.68,2.02-1.39,5.01,0.63,6.68
					c5.54,4.58,12.69,7.01,20.05,7c3.41,0,6.87-0.52,10.23-1.59c8.9-2.85,16.59-9.38,21.46-18.02
					c17.12,12.13,27.51,32.21,27.94,54.38C827.1,672.7,816.52,694.13,798.36,706.79z"/>
				<path class="st1" d="M694.08,629.86c-2.49-0.82-5.17,0.53-6,3.02c-3.21,9.73-12.57,17.19-22.78,18.15
					c-10.21,0.95-20.79-4.64-25.74-13.61c-4.96-8.97-4.06-20.91,2.17-29.04c1.6-2.08,1.2-5.06-0.88-6.66
					c-2.08-1.6-5.06-1.2-6.66,0.88c-8.46,11.04-9.67,27.24-2.95,39.41c6.23,11.27,19.01,18.62,31.86,18.62
					c1.03,0,2.06-0.05,3.08-0.14c13.85-1.29,26.56-11.42,30.91-24.63C697.93,633.36,696.57,630.68,694.08,629.86z"/>
			</g>
		</g>
		<path class="st3" d="M495.11,265.8v36.74c0,12.53,10.15,22.68,22.68,22.68h0c12.53,0,22.68-10.15,22.68-22.68v-35.28
			c0-32.24,25.02-59.73,57.24-60.95c33.87-1.28,61.83,25.9,61.83,59.49v65.09h45.36v-63.38c0-57.16-45.04-105.13-102.18-106.56
			c-30.05-0.76-57.28,11.11-76.87,30.7C506.85,210.64,495.11,236.83,495.11,265.8z"/>
		<g>
			<path class="st2" d="M426.77,941.44c-3.14-0.66-6.65-1.53-10.51-2.63c-2.56-0.73-4.27-1.13-5.15-1.21l0.99-20.26h8.87l2.41,14.13
				c0.95,1.02,2.65,1.94,5.09,2.74c2.45,0.8,5.24,1.21,8.38,1.21c4.89,0,8.56-1.08,11.01-3.23c2.45-2.15,3.67-5.17,3.67-9.04
				c0-2.55-0.73-4.76-2.19-6.63c-1.46-1.86-3.47-3.54-6.02-5.04c-2.56-1.5-6.06-3.23-10.51-5.2c-6.06-2.77-11.08-6.08-15.06-9.91
				c-3.98-3.83-5.97-9.04-5.97-15.61c0-4.09,1.06-7.79,3.18-11.12c2.12-3.32,5.27-5.95,9.47-7.89c4.2-1.93,9.33-2.9,15.39-2.9
				c3.58,0,6.74,0.26,9.47,0.77c2.74,0.51,5.71,1.21,8.93,2.08c1.9,0.51,3.32,0.84,4.27,0.99l-0.66,19.17h-8.76l-2.3-13.47
				c-0.66-0.66-1.97-1.3-3.94-1.92c-1.97-0.62-4.16-0.93-6.57-0.93c-4.38,0-7.69,1-9.91,3.01c-2.23,2.01-3.34,4.69-3.34,8.05
				c0,2.7,0.82,5.04,2.46,7.01c1.64,1.97,3.63,3.63,5.97,4.98c2.34,1.35,6.02,3.27,11.06,5.75c4.09,1.97,7.59,3.91,10.51,5.8
				c2.92,1.9,5.44,4.36,7.56,7.39c2.12,3.03,3.18,6.59,3.18,10.68c0,4.02-1,7.85-3.01,11.5c-2.01,3.65-5.29,6.68-9.86,9.09
				c-4.56,2.41-10.39,3.61-17.47,3.61C433.45,942.42,429.91,942.1,426.77,941.44z"/>
			<path class="st2" d="M481.92,933.94c-4.71-5.66-7.06-13.38-7.06-23.17c0-6.57,1.22-12.27,3.67-17.09
				c2.45-4.82,5.9-8.51,10.35-11.06c4.45-2.55,9.6-3.83,15.44-3.83c7.3,0,12.92,1.92,16.87,5.75c3.94,3.83,5.99,9.29,6.13,16.37
				c0,4.82-0.29,8.4-0.88,10.73h-35.6c0.29,6.64,1.86,11.81,4.71,15.5c2.85,3.69,6.9,5.53,12.16,5.53c2.85,0,5.79-0.47,8.82-1.42
				c3.03-0.95,5.42-2.08,7.17-3.4l2.74,6.02c-1.97,2.12-5.17,4.07-9.58,5.86c-4.42,1.79-8.89,2.68-13.42,2.68
				C493.8,942.42,486.63,939.6,481.92,933.94z M511.98,905.07c0.15-2.04,0.22-3.61,0.22-4.71c0-9.71-3.25-14.57-9.75-14.57
				c-3.58,0-6.35,1.42-8.32,4.27c-1.97,2.85-3.07,7.85-3.29,15H511.98z"/>
			<path class="st2" d="M542.43,861.15l-8.1-1.42v-5.92l20.26-2.41h0.22l2.96,2.08v80.28l8,0.88v6.57h-31v-6.57l7.67-0.99V861.15z"
				/>
			<path class="st2" d="M581.53,939.03c-2.19-2.12-3.29-5.48-3.29-10.08v-40.2h-7.12v-5.7c0.58-0.22,1.64-0.6,3.18-1.15
				s2.7-1,3.5-1.37c1.24-0.95,2.3-2.59,3.18-4.93c0.66-1.53,1.86-5.33,3.61-11.39h8.76l0.44,16.1h16.76v8.43h-16.65v30.78
				c0,4.09,0.11,6.97,0.33,8.65c0.22,1.68,0.69,2.76,1.42,3.23c0.73,0.48,2.01,0.71,3.83,0.71c1.82,0,3.72-0.2,5.7-0.6
				c1.97-0.4,3.62-0.89,4.93-1.48l2.08,6.13c-2.04,1.53-5.04,2.92-8.98,4.16c-3.94,1.24-7.78,1.86-11.5,1.86
				C587.12,942.2,583.72,941.15,581.53,939.03z"/>
			<path class="st2" d="M623.15,861.15l-8.32-1.42v-5.92l20.37-2.41h0.33l2.85,2.08l0.11,24.42l-0.77,9.53
				c2.26-2.04,5.35-3.94,9.25-5.7c3.91-1.75,8.01-2.63,12.32-2.63c4.6,0,8.18,0.86,10.73,2.57c2.56,1.72,4.34,4.33,5.37,7.83
				c1.02,3.5,1.53,8.18,1.53,14.02v30.12l7.01,0.99v6.57h-28.81v-6.57l6.35-0.99v-30.12c0-3.8-0.26-6.75-0.77-8.87
				c-0.51-2.12-1.44-3.69-2.79-4.71c-1.35-1.02-3.34-1.53-5.97-1.53c-2.26,0-4.58,0.53-6.96,1.59c-2.37,1.06-4.47,2.32-6.3,3.78
				v39.87l6.68,0.99v6.57h-28.37v-6.57l6.13-0.88V861.15z"/>
			<path class="st2" d="M697.46,933.94c-4.71-5.66-7.06-13.38-7.06-23.17c0-6.57,1.22-12.27,3.67-17.09
				c2.45-4.82,5.9-8.51,10.35-11.06c4.45-2.55,9.6-3.83,15.44-3.83c7.3,0,12.92,1.92,16.87,5.75c3.94,3.83,5.99,9.29,6.13,16.37
				c0,4.82-0.29,8.4-0.88,10.73h-35.6c0.29,6.64,1.86,11.81,4.71,15.5c2.85,3.69,6.9,5.53,12.16,5.53c2.85,0,5.79-0.47,8.82-1.42
				c3.03-0.95,5.42-2.08,7.17-3.4l2.74,6.02c-1.97,2.12-5.17,4.07-9.58,5.86c-4.42,1.79-8.89,2.68-13.42,2.68
				C709.35,942.42,702.17,939.6,697.46,933.94z M727.53,905.07c0.15-2.04,0.22-3.61,0.22-4.71c0-9.71-3.25-14.57-9.75-14.57
				c-3.58,0-6.35,1.42-8.32,4.27s-3.07,7.85-3.29,15H727.53z"/>
			<path class="st2" d="M751.62,934.76l7.23-0.88v-43.15l-7.01-1.97v-7.56l16.98-2.3h0.33l2.74,2.19v2.41l-0.33,8.87h0.33
				c0.51-1.46,1.71-3.27,3.61-5.42c1.9-2.15,4.29-4.05,7.17-5.7c2.88-1.64,6.01-2.46,9.37-2.46c1.61,0,2.99,0.22,4.16,0.66v16.43
				c-2.19-1.53-4.86-2.3-8-2.3c-5.33,0-9.97,1.42-13.91,4.27v35.92l12.71,0.99v6.46h-35.38V934.76z"/>
			<path class="st2" d="M472.82,999.49l-11.83-1.42v-6.79h34.17l13.03,47.1l3.07,12.81l2.63-12.81l12.92-47.1h33.84v6.79
				l-11.94,1.42l8.76,65.39l8.87,1.21v6.57h-34.94v-6.57l9.64-1.1l-4.82-47.97l-2.08-20.04l-4.05,16.87l-15.88,55.42h-11.61
				l-16.21-52.57l-5.59-19.71l-1.64,20.04l-4.16,47.97l11.06,1.1v6.57h-30.45v-6.57l9.2-1.1L472.82,999.49z"/>
			<path class="st2" d="M578.85,1022.16l-7.78-2.08v-7.34l20.04-2.41h0.22l3.07,2.19v52.68l7.34,0.88v6.57h-30.56v-6.57l7.67-0.99
				V1022.16z M578.41,999.49c-1.53-1.53-2.3-3.5-2.3-5.91c0-2.77,0.88-5.07,2.63-6.9c1.75-1.82,4.09-2.74,7.01-2.74
				c2.92,0,5.15,0.79,6.68,2.36c1.53,1.57,2.3,3.52,2.3,5.86c0,2.92-0.88,5.26-2.63,7.01c-1.75,1.75-4.2,2.63-7.34,2.63h-0.11
				C582.02,1001.79,579.94,1001.02,578.41,999.49z"/>
			<path class="st2" d="M615.76,1022.16l-7.01-1.97v-7.56l18.18-2.3h0.33l2.74,2.19v4.27l-0.11,2.63c2.55-2.41,5.88-4.49,9.97-6.24
				c4.09-1.75,8.21-2.63,12.38-2.63c4.45,0,7.94,0.82,10.46,2.46c2.52,1.64,4.33,4.22,5.42,7.72c1.09,3.5,1.64,8.25,1.64,14.24
				v30.23l6.68,0.88v6.57h-28.26v-6.57l5.92-0.88v-30.23c0-3.8-0.26-6.77-0.77-8.93c-0.51-2.15-1.44-3.72-2.79-4.71
				c-1.35-0.99-3.27-1.48-5.75-1.48c-4.16,0-8.62,1.79-13.36,5.37v39.87l6.57,0.99v6.57H609.4v-6.57l6.35-0.99V1022.16z"/>
			<path class="st2" d="M694.94,1070.63c-3.58-2.15-6.43-5.49-8.54-10.02c-2.12-4.53-3.18-10.19-3.18-16.98
				c0-6.13,1.26-11.74,3.78-16.81c2.52-5.07,6.22-9.11,11.12-12.1c4.89-2.99,10.77-4.49,17.63-4.49c2.77,0,5.4,0.29,7.89,0.88
				v-18.51l-10.73-1.53v-6.02l22.56-2.19h0.33l3.07,2.3v80.83h5.92v6.24c-5.26,1.1-9.6,1.64-13.03,1.64c-2.34,0-4-0.38-4.98-1.15
				c-0.99-0.77-1.48-2.28-1.48-4.54v-3.07c-1.9,2.56-4.49,4.66-7.78,6.3c-3.29,1.64-6.75,2.46-10.41,2.46
				C702.57,1073.86,698.52,1072.78,694.94,1070.63z M719.21,1063.29c1.86-0.99,3.34-2.17,4.44-3.56v-39.87
				c-0.51-0.73-1.59-1.35-3.23-1.86c-1.64-0.51-3.41-0.77-5.31-0.77c-4.67,0-8.42,2.03-11.23,6.08c-2.81,4.05-4.22,10.53-4.22,19.44
				c0,7.45,1.21,12.98,3.61,16.59c2.41,3.61,5.59,5.42,9.53,5.42C715.21,1064.77,717.34,1064.27,719.21,1063.29z"/>
		</g>
	</g>
</g>
</svg>
