<?xml version="1.0" encoding="utf-8"?>
<!-- Generator: Adobe Illustrator 25.0.0, SVG Export Plug-In . SVG Version: 6.00 Build 0)  -->
<svg version="1.1" xmlns="http://www.w3.org/2000/svg" xmlns:xlink="http://www.w3.org/1999/xlink" x="0px" y="0px"
	 viewBox="0 0 1200 600.12" style="enable-background:new 0 0 1200 600.12;" xml:space="preserve">
<style type="text/css">
	.st0{fill:#7BA4E0;}
	.st1{fill:#E8EBEF;}
	.st2{fill:#162864;}
	.st3{fill:#6694DD;}
</style>
<g id="BG">
</g>
<g id="Design">
	<g>
		<g>
			<g>
				<g>
					<path class="st0" d="M495.33,511.71c-0.82-0.91-2.21-0.98-3.12-0.16c-4.29,3.85-8.76,7.61-13.31,11.16
						c-0.96,0.75-1.13,2.14-0.37,3.1c0.43,0.56,1.08,0.85,1.74,0.85c0.48,0,0.95-0.15,1.36-0.47c4.62-3.61,9.18-7.43,13.54-11.36
						C496.07,514.01,496.14,512.61,495.33,511.71z M172.63,522.6c-4.54-3.55-9.01-7.31-13.29-11.17c-0.91-0.82-2.31-0.74-3.12,0.16
						c-0.82,0.91-0.74,2.3,0.16,3.12c4.35,3.93,8.91,7.75,13.53,11.37c0.4,0.31,0.88,0.47,1.36,0.47c0.66,0,1.3-0.3,1.74-0.85
						C173.77,524.74,173.6,523.35,172.63,522.6z M519.45,486.32c-0.94-0.79-2.33-0.66-3.11,0.27c-3.71,4.41-7.62,8.74-11.63,12.89
						c-0.85,0.88-0.83,2.28,0.05,3.12c0.43,0.42,0.98,0.62,1.53,0.62c0.57,0,1.15-0.22,1.59-0.67c4.08-4.22,8.06-8.64,11.83-13.12
						C520.5,488.5,520.38,487.11,519.45,486.32z M146.85,499.37c-4-4.14-7.92-8.49-11.63-12.9c-0.79-0.94-2.18-1.06-3.11-0.27
						c-0.94,0.79-1.06,2.18-0.27,3.11c3.77,4.49,7.75,8.91,11.83,13.13c0.43,0.45,1.01,0.68,1.59,0.68c0.55,0,1.11-0.21,1.53-0.62
						C147.68,501.65,147.7,500.25,146.85,499.37z M539.81,457.86c-1.03-0.65-2.4-0.34-3.04,0.69c-3.06,4.88-6.34,9.72-9.73,14.37
						c-0.72,0.98-0.5,2.37,0.48,3.09c0.39,0.28,0.85,0.42,1.3,0.42c0.68,0,1.36-0.31,1.79-0.91c3.45-4.74,6.79-9.66,9.9-14.63
						C541.16,459.87,540.84,458.51,539.81,457.86z M124.53,472.78c-3.39-4.66-6.67-9.51-9.73-14.39c-0.65-1.03-2.01-1.35-3.04-0.7
						c-1.03,0.65-1.35,2.01-0.69,3.04c3.11,4.97,6.44,9.9,9.9,14.65c0.43,0.59,1.11,0.91,1.78,0.91c0.45,0,0.91-0.13,1.3-0.42
						C125.03,475.15,125.25,473.77,124.53,472.78z M556.01,426.85c-1.12-0.5-2.42,0-2.92,1.11c-2.35,5.25-4.91,10.5-7.63,15.58
						c-0.57,1.07-0.16,2.41,0.91,2.98c0.33,0.18,0.69,0.27,1.04,0.27c0.79,0,1.55-0.43,1.94-1.17c2.77-5.17,5.37-10.51,7.77-15.85
						C557.63,428.65,557.13,427.35,556.01,426.85z M106.1,443.35c-2.72-5.1-5.28-10.35-7.63-15.62c-0.5-1.11-1.81-1.61-2.92-1.12
						c-1.12,0.5-1.61,1.81-1.12,2.92c2.39,5.36,5,10.71,7.76,15.9c0.4,0.74,1.17,1.17,1.95,1.17c0.35,0,0.71-0.08,1.04-0.26
						C106.26,445.77,106.68,444.43,106.1,443.35z M567.72,393.88c-1.17-0.34-2.4,0.34-2.73,1.52c-1.59,5.53-3.4,11.09-5.38,16.51
						c-0.42,1.15,0.18,2.41,1.32,2.83c0.25,0.09,0.51,0.13,0.76,0.13c0.9,0,1.75-0.56,2.07-1.45c2.02-5.51,3.85-11.17,5.48-16.8
						C569.57,395.44,568.89,394.22,567.72,393.88z M91.96,411.62c-1.97-5.41-3.77-10.97-5.36-16.51c-0.34-1.17-1.56-1.85-2.73-1.52
						c-1.17,0.34-1.85,1.56-1.52,2.73c1.61,5.64,3.45,11.3,5.45,16.81c0.33,0.9,1.17,1.46,2.08,1.46c0.25,0,0.5-0.04,0.75-0.13
						C91.78,414.04,92.37,412.77,91.96,411.62z M574.7,359.58c-1.21-0.18-2.33,0.67-2.49,1.88c-0.68,4.8-1.5,9.63-2.45,14.39
						c-0.18,0.91-0.37,1.81-0.56,2.71c-0.25,1.19,0.51,2.37,1.7,2.62c0.15,0.03,0.31,0.05,0.46,0.05c1.02,0,1.94-0.71,2.16-1.75
						c0.23-1.06,0.45-2.13,0.66-3.21c0.94-4.7,1.75-9.46,2.41-14.19C576.75,360.86,575.91,359.75,574.7,359.58z M82.42,378.26
						c-0.17-0.8-0.34-1.61-0.5-2.42c-0.98-4.86-1.82-9.78-2.5-14.68c-0.17-1.21-1.28-2.05-2.49-1.88c-1.21,0.17-2.05,1.29-1.88,2.49
						c0.67,4.83,1.5,9.69,2.45,14.49c0.19,0.98,0.39,1.95,0.6,2.92c0.22,1.04,1.14,1.75,2.16,1.75c0.15,0,0.3-0.02,0.46-0.05
						C81.9,380.63,82.67,379.46,82.42,378.26z M578.41,325.28c-0.4-0.4-0.95-0.65-1.56-0.65c-1.22,0-2.2,0.98-2.21,2.2
						c-0.01,3.77-0.09,7.57-0.27,11.35c-0.05,1.15-0.11,2.29-0.18,3.43c-0.05,0.86-0.11,1.72-0.17,2.57
						c-0.02,0.31,0.02,0.62,0.12,0.89c0.28,0.81,1.03,1.41,1.93,1.47c0.05,0,0.1,0.01,0.15,0.01c0.92,0,1.72-0.56,2.04-1.38
						c0.09-0.21,0.14-0.44,0.16-0.68c0.07-0.94,0.13-1.87,0.18-2.81c0.07-1.16,0.13-2.32,0.18-3.48c0.17-3.79,0.26-7.59,0.27-11.37
						C579.05,326.23,578.81,325.69,578.41,325.28z M77.03,326.55v-0.58c0-1.22-0.98-2.21-2.2-2.21c-1.16-0.08-2.21,0.98-2.21,2.2
						l-0.01,0.59c0,5.88,0.21,11.82,0.61,17.65c0.08,1.17,1.05,2.06,2.2,2.06c0.05,0,0.1-0.01,0.16-0.01
						c1.21-0.08,2.13-1.14,2.05-2.36C77.23,338.16,77.03,332.33,77.03,326.55z M578.41,308.35c-0.31-4.4-0.74-8.82-1.29-13.21
						c-0.14-1.18-0.3-2.36-0.46-3.53c-0.17-1.21-1.28-2.05-2.49-1.88c-1.21,0.17-2.05,1.28-1.89,2.49c0.13,0.97,0.27,1.95,0.39,2.93
						c0.56,4.41,1,8.87,1.32,13.31c0.02,0.34,0.05,0.69,0.07,1.03c0.08,1.17,1.05,2.06,2.2,2.06c0.05,0,0.1-0.01,0.15-0.01
						c1.22-0.08,2.14-1.14,2.06-2.36C578.45,308.91,578.43,308.63,578.41,308.35z M77.63,288.86c-1.2-0.17-2.33,0.67-2.49,1.88
						c-0.7,4.93-1.26,9.95-1.66,14.94c-0.08,0.88-0.14,1.75-0.21,2.63c-0.09,1.21,0.83,2.27,2.04,2.36
						c0.05,0.01,0.11,0.01,0.16,0.01c1.15,0,2.11-0.89,2.2-2.05c0.09-1.25,0.19-2.51,0.3-3.76c0.39-4.52,0.91-9.04,1.54-13.5
						C79.67,290.14,78.83,289.03,77.63,288.86z M573.64,274.21c-1.21-5.74-2.63-11.51-4.24-17.15c-0.34-1.18-1.56-1.85-2.73-1.52
						c-1.17,0.33-1.85,1.56-1.52,2.73c1.58,5.54,2.98,11.21,4.17,16.85c0.22,1.04,1.14,1.76,2.16,1.76c0.15,0,0.31-0.02,0.46-0.05
						C573.12,276.57,573.88,275.4,573.64,274.21z M85.25,254.69c-1.18-0.34-2.4,0.33-2.74,1.5c-1.63,5.64-3.07,11.41-4.3,17.14
						c-0.25,1.2,0.51,2.37,1.7,2.62c0.16,0.04,0.31,0.05,0.47,0.05c1.02,0,1.93-0.71,2.16-1.75c1.2-5.63,2.63-11.3,4.22-16.84
						C87.1,256.25,86.43,255.03,85.25,254.69z M563.96,240.24c-2.01-5.51-4.23-11.04-6.61-16.41c-0.5-1.11-1.81-1.61-2.92-1.12
						c-1.11,0.5-1.61,1.8-1.12,2.92c2.34,5.28,4.53,10.7,6.49,16.12c0.33,0.89,1.17,1.46,2.08,1.46c0.25,0,0.5-0.04,0.75-0.13
						C563.78,242.65,564.38,241.38,563.96,240.24z M97.58,221.95c-1.11-0.5-2.42,0-2.92,1.11c-2.4,5.34-4.64,10.85-6.66,16.35
						c-0.42,1.14,0.17,2.41,1.32,2.83c0.25,0.09,0.51,0.13,0.76,0.13c0.9,0,1.75-0.56,2.07-1.45c1.98-5.4,4.18-10.8,6.53-16.06
						C99.19,223.75,98.69,222.44,97.58,221.95z M549.61,207.93c-2.75-5.18-5.73-10.33-8.84-15.32c-0.65-1.04-2.01-1.35-3.04-0.71
						c-1.03,0.65-1.35,2.01-0.7,3.04c3.06,4.9,5.98,9.96,8.68,15.05c0.39,0.75,1.16,1.17,1.95,1.17c0.35,0,0.71-0.08,1.03-0.26
						C549.77,210.34,550.17,209,549.61,207.93z M114.36,191.25c-1.03-0.65-2.4-0.34-3.04,0.69c-3.13,4.97-6.11,10.1-8.88,15.27
						c-0.57,1.07-0.17,2.42,0.91,2.99c0.33,0.18,0.69,0.26,1.04,0.26c0.79,0,1.55-0.42,1.95-1.17c2.72-5.07,5.65-10.12,8.72-15
						C115.7,193.26,115.4,191.9,114.36,191.25z M530.88,177.95c-3.45-4.75-7.11-9.44-10.88-13.93c-0.78-0.94-2.17-1.06-3.11-0.27
						c-0.94,0.78-1.06,2.17-0.27,3.11c3.7,4.41,7.3,9.02,10.68,13.69c0.43,0.6,1.11,0.91,1.79,0.91c0.45,0,0.91-0.14,1.3-0.42
						C531.38,180.31,531.6,178.94,530.88,177.95z M135.25,163.17c-0.93-0.78-2.33-0.66-3.11,0.27c-3.78,4.49-7.45,9.16-10.91,13.9
						c-0.72,0.98-0.5,2.37,0.48,3.09c0.39,0.28,0.85,0.42,1.3,0.42c0.68,0,1.35-0.31,1.79-0.91c3.4-4.65,7.01-9.25,10.72-13.65
						C136.3,165.35,136.19,163.96,135.25,163.17z M508.2,150.87c-4.06-4.23-8.34-8.36-12.69-12.3c-0.9-0.82-2.3-0.74-3.12,0.16
						c-0.82,0.9-0.75,2.3,0.16,3.12c4.28,3.87,8.48,7.93,12.48,12.08c0.43,0.45,1.01,0.68,1.59,0.68c0.55,0,1.11-0.21,1.53-0.62
						C509.02,153.14,509.04,151.75,508.2,150.87z M159.85,138.24c-0.82-0.91-2.22-0.98-3.12-0.17c-4.37,3.92-8.65,8.04-12.73,12.25
						c-0.85,0.88-0.83,2.28,0.05,3.12c0.43,0.42,0.98,0.62,1.54,0.62c0.57,0,1.15-0.22,1.58-0.67c4.02-4.14,8.23-8.19,12.51-12.04
						C160.58,140.55,160.66,139.15,159.85,138.24z M481.99,127.2c-4.62-3.62-9.42-7.13-14.27-10.41c-1.01-0.68-2.39-0.42-3.07,0.59
						c-0.68,1.01-0.42,2.39,0.59,3.07c4.76,3.23,9.48,6.67,14.02,10.23c0.4,0.32,0.89,0.47,1.36,0.47c0.65,0,1.3-0.29,1.74-0.85
						C483.11,129.34,482.95,127.95,481.99,127.2z M187.66,116.95c-0.68-1.01-2.05-1.28-3.07-0.6c-4.86,3.27-9.67,6.76-14.31,10.38
						c-0.97,0.75-1.14,2.14-0.39,3.1c0.43,0.56,1.09,0.85,1.75,0.85c0.47,0,0.95-0.15,1.35-0.47c4.55-3.55,9.29-6.98,14.07-10.19
						C188.07,119.34,188.34,117.96,187.66,116.95z M452.77,107.4c-5.07-2.95-10.31-5.74-15.58-8.33c-1.09-0.53-2.42-0.08-2.95,1.01
						c-0.54,1.09-0.08,2.42,1.01,2.95c5.17,2.54,10.32,5.28,15.3,8.18c0.35,0.21,0.73,0.3,1.11,0.3c0.76,0,1.5-0.4,1.91-1.11
						C454.18,109.36,453.82,108.01,452.77,107.4z M218.17,99.73c-0.53-1.09-1.85-1.55-2.95-1.02c-5.28,2.57-10.53,5.36-15.62,8.29
						c-1.06,0.61-1.42,1.96-0.81,3.01c0.41,0.71,1.15,1.11,1.91,1.11c0.37,0,0.75-0.09,1.11-0.3c4.99-2.88,10.16-5.62,15.35-8.14
						C218.24,102.15,218.7,100.83,218.17,99.73z M421.09,91.86c-5.44-2.21-11.02-4.25-16.6-6.07c-1.15-0.38-2.4,0.25-2.78,1.41
						c-0.38,1.16,0.25,2.4,1.41,2.78c5.48,1.79,10.96,3.79,16.3,5.97c0.28,0.11,0.56,0.16,0.83,0.16c0.87,0,1.7-0.53,2.05-1.38
						C422.76,93.6,422.21,92.32,421.09,91.86z M250.8,86.94c-0.37-1.16-1.62-1.8-2.78-1.43c-5.59,1.81-11.19,3.83-16.64,6.02
						c-1.14,0.46-1.68,1.75-1.23,2.87c0.34,0.86,1.18,1.38,2.05,1.38c0.28,0,0.56-0.05,0.83-0.16c5.35-2.16,10.85-4.14,16.34-5.92
						C250.54,89.34,251.18,88.09,250.8,86.94z M387.51,80.9c-4.01-1-8.08-1.91-12.16-2.72c-1.7-0.34-3.41-0.66-5.12-0.96
						c-1.2-0.21-2.34,0.59-2.56,1.79c-0.21,1.2,0.59,2.35,1.79,2.56c1.83,0.32,3.66,0.67,5.49,1.04c3.85,0.77,7.7,1.63,11.49,2.58
						c0.18,0.05,0.36,0.07,0.54,0.07c0.99,0,1.89-0.66,2.14-1.67C389.41,82.39,388.69,81.19,387.51,80.9z M284.87,78.85
						c-0.21-1.2-1.35-2.01-2.55-1.8c-1.99,0.34-3.99,0.72-5.99,1.12c-3.79,0.75-7.57,1.59-11.31,2.51c-1.18,0.29-1.9,1.49-1.61,2.67
						c0.25,1.01,1.15,1.68,2.14,1.68c0.18,0,0.35-0.02,0.53-0.06c3.51-0.87,7.07-1.66,10.64-2.37c2.12-0.43,4.24-0.82,6.35-1.19
						C284.27,81.2,285.08,80.06,284.87,78.85z M352.73,74.74c-5.82-0.62-11.75-1.03-17.62-1.24c-1.23-0.04-2.24,0.91-2.28,2.13
						c-0.05,1.22,0.91,2.25,2.13,2.29c5.77,0.21,11.6,0.62,17.31,1.23c0.08,0.01,0.16,0.01,0.24,0.01c1.12,0,2.07-0.85,2.19-1.98
						C354.83,75.96,353.95,74.87,352.73,74.74z M317.45,73.47c-5.87,0.19-11.8,0.59-17.63,1.18c-1.21,0.13-2.1,1.21-1.97,2.42
						c0.12,1.14,1.07,1.98,2.2,1.98c0.07,0,0.15,0,0.22-0.01c5.73-0.59,11.55-0.98,17.32-1.17c1.22-0.04,2.18-1.06,2.14-2.28
						C319.69,74.39,318.67,73.43,317.45,73.47z"/>
				</g>
			</g>
			<g>
				<path class="st1" d="M311.35,426.62V319.73c0-0.01,0-0.01,0-0.01v-93.45c0-0.05-0.01-0.1-0.02-0.16c0-0.14,0-0.26-0.01-0.4
					c-0.06-3.07-0.78-6.12-2.08-8.99c-2.25-5.01-6.23-9.45-11.41-12.44c-8.96-5.16-19.06-5.11-25.96-4.15
					c-11.37,1.58-21.27,6.52-27.86,13.9c-6.85,7.67-9.79,18.08-7.93,27.29c-13.69-2.22-28.2,2.2-39.03,12.17
					c-11.65,10.73-16.69,25.92-13.49,40.64c1.76,8.09,6.41,14.9,12.72,18.83c0.14,0.09,0.28,0.16,0.41,0.25
					c-0.06,0.09-0.12,0.18-0.18,0.27c-2.2,3.32-3.72,7.3-4.41,11.66c-0.76,4.74-0.44,9.51,0.86,13.79
					c-12.46,8.23-20.07,22.39-20.36,38.01c-0.29,14.78,5.99,28.51,16.93,37.35c0.81,0.66,1.64,1.28,2.5,1.88
					c1.9,1.32,6.1,4.01,11.37,5.9c3.36,1.21,7.15,2.1,11.05,2.1c1.4,0,2.82-0.12,4.23-0.38c-0.29,2.05-0.36,4.15-0.26,6.28
					c0.1,2.03,0.38,4.08,0.83,6.13c1.02,4.71,2.94,9.45,5.68,13.94c3.71,6.08,8.03,11.39,12.72,15.73
					c5.46,5.07,11.42,8.83,17.49,10.93c0.83,0.29,1.66,0.55,2.49,0.77c5.74,1.55,11.46,2.31,16.92,2.31c9.88,0,18.95-2.5,25.79-7.32
					c6.07-4.27,11.35-14.95,10.98-22.11c0-0.01,0.01-0.02,0.01-0.03v-22.64C311.43,427.42,311.44,427.02,311.35,426.62z"/>
			</g>
			<g>
				<g>
					<path class="st2" d="M478.75,400.12c-0.29-14.76-7.09-28.22-18.35-36.58c-0.66-0.5-1.33-0.97-2.02-1.43
						c0.1-0.33,0.19-0.66,0.28-0.99c1.07-4.01,1.28-8.42,0.58-12.79c-0.71-4.49-2.29-8.55-4.59-11.94
						c6.52-3.87,11.35-10.8,13.14-19.08c3.19-14.73-1.85-29.92-13.49-40.64c-1.1-1.01-2.24-1.97-3.41-2.86
						c-5.01-3.84-10.63-6.61-16.49-8.22c-6.26-1.73-12.79-2.13-19.14-1.1c0.37-1.82,0.55-3.69,0.55-5.58c0-1.93-0.19-3.89-0.56-5.82
						c-1.11-5.72-3.81-11.3-7.92-15.9c-1.95-2.18-4.18-4.14-6.65-5.87c-4.13-2.88-8.93-5.11-14.18-6.57
						c-2.26-0.63-4.61-1.12-7.02-1.45c-6.9-0.96-17-1.01-25.97,4.15c-8.28,4.78-13.48,13.26-13.49,21.83
						c-0.01,0.06-0.01,0.11-0.01,0.16v93.45c0,0,0,0,0,0.01v106.89c-0.09,0.39-0.09,0.8,0,1.18v22.66
						c-0.06,1.11,0.02,2.31,0.22,3.57c0.53,3.34,1.9,7.02,3.79,10.32c1.92,3.4,4.38,6.4,6.97,8.23c6.85,4.82,15.9,7.32,25.79,7.32
						c5.47,0,11.19-0.76,16.92-2.31c12.13-3.28,24.05-13.28,32.7-27.43c5.2-8.51,7.42-17.86,6.25-26.36
						c1.41,0.26,2.83,0.39,4.23,0.39c9.98,0,19.3-5.83,22.41-8C471.78,430.66,479.05,415.99,478.75,400.12z"/>
				</g>
			</g>
			<g>
				<path class="st2" d="M322.52,439.03V238.72c0-0.06-0.01-0.11-0.02-0.16c-0.01-8.53-5.1-16.97-13.25-21.83
					c-0.12-0.08-0.25-0.15-0.37-0.22c-9.02-5.21-19.19-5.15-26.13-4.19c-11.43,1.59-21.38,6.55-28.01,13.98
					c-6.82,7.64-9.8,17.96-8.07,27.16c-13.66-2.1-28.1,2.36-38.88,12.29c-11.72,10.79-16.79,26.07-13.57,40.88
					c0.48,2.22,1.18,4.34,2.07,6.34c0.08,0.18,0.16,0.35,0.24,0.52c2.42,5.19,6.15,9.48,10.73,12.27c-2.23,3.37-3.78,7.37-4.48,11.8
					c-0.75,4.71-0.46,9.46,0.81,13.73c-12.43,8.29-20.01,22.46-20.31,38.1c-0.17,8.97,2.06,17.56,6.28,24.91
					c3.28,5.73,7.77,10.71,13.26,14.54c2.48,1.73,8.89,5.78,16.45,7.37c1.98,0.42,4.03,0.67,6.11,0.67c1.3,0,2.62-0.1,3.94-0.31
					c-1.07,8.45,1.16,17.73,6.32,26.17c0.66,1.08,1.33,2.13,2.03,3.15c8.46,12.54,19.55,21.34,30.82,24.39
					c5.76,1.55,11.5,2.32,16.99,2.32c9.94,0,19.06-2.51,25.94-7.36c6.13-4.31,11.46-15.09,11.09-22.32c0-0.01,0.01-0.02,0.01-0.03
					v-22.61C322.6,439.87,322.61,439.45,322.52,439.03z M308.12,480.55c-9.31,6.55-23.57,8.12-38.13,4.19
					c-5.05-1.36-10.08-4.09-14.83-7.92c-5.4-4.36-10.41-10.17-14.63-17.07c-4.55-7.43-6.5-15.52-5.5-22.76
					c1.1-8,6.08-15.01,12.69-17.85c0.03-0.01,0.05-0.03,0.07-0.04c1.67,1.28,3.49,2.35,5.41,3.17c3.18,1.35,6.65,2.01,10.11,2.01
					c5.25,0,10.51-1.51,14.83-4.44c1.31-0.89,1.65-2.67,0.76-3.98c-0.89-1.31-2.67-1.65-3.98-0.76c-5.6,3.8-13.24,4.55-19.48,1.9
					c-6.23-2.65-10.99-8.68-12.13-15.35c-1.14-6.68,1.35-13.94,6.35-18.51c1.17-1.07,1.25-2.88,0.18-4.05
					c-1.07-1.17-2.88-1.25-4.05-0.19c-6.4,5.85-9.58,15.16-8.12,23.7c0.76,4.49,2.82,8.74,5.75,12.27
					c-5.75,3.17-10.3,8.79-12.64,15.43c-3.83,1.26-8.15,0.96-12.35-0.22c-4.48-1.25-8.84-3.5-12.34-5.95
					c-0.93-0.64-1.82-1.33-2.67-2.05c-9.33-7.78-14.67-19.72-14.42-32.58c0.26-13.39,6.53-25.52,16.87-32.84
					c2.94,5.22,7.58,9.16,12.96,10.88c2.03,0.65,4.11,0.96,6.18,0.96c4.44,0,8.76-1.46,12.11-4.23c1.22-1.01,1.39-2.82,0.38-4.04
					c-1.01-1.22-2.82-1.39-4.04-0.38c-3.36,2.78-8.41,3.65-12.87,2.22c-4.28-1.36-8.12-4.81-10.27-9.23
					c-2.03-4.15-2.7-9.26-1.88-14.39c0.92-5.79,3.67-10.85,7.55-13.89c4.21-3.3,9.94-4.16,14.25-2.13c1.43,0.67,3.14,0.06,3.82-1.38
					c0.67-1.43,0.06-3.15-1.38-3.82c-6.22-2.92-14.34-1.8-20.22,2.81c-0.48,0.39-0.95,0.81-1.4,1.23
					c-5.53-3.01-9.68-8.8-11.22-15.86c-2.82-12.99,1.5-25.92,11.85-35.45c9.91-9.14,23.28-13,35.69-10.55
					c-3.13,5.48-3.31,12.58-0.06,18.1c0.53,0.91,1.49,1.41,2.47,1.41c0.49,0,0.99-0.13,1.45-0.39c1.37-0.81,1.83-2.56,1.02-3.93
					c-2.72-4.63-1.82-11.16,2.05-14.88c3.87-3.72,10.44-4.36,14.95-1.45c1.33,0.86,3.11,0.48,3.96-0.86
					c0.86-1.33,0.48-3.11-0.86-3.96c-5.93-3.82-13.96-3.58-19.75,0.3c-2.02-7.79,0.41-16.92,6.41-23.64
					c5.72-6.41,14.43-10.72,24.52-12.12c6.05-0.84,14.85-0.92,22.47,3.47c2,1.16,3.79,2.6,5.31,4.24c3.59,3.88,5.67,8.84,5.44,13.61
					c-0.01,0.11,0.01,0.21,0.01,0.32v38.91c-1.82,0.38-3.64,0.61-5.43,0.68c-4.41,0.2-8.66-0.5-12.38-2.09
					c-6.05-2.59-10.8-7.78-12.37-13.54c-1.65-6.07,0.32-12.89,4.81-16.6c1.22-1.01,1.39-2.82,0.38-4.04
					c-1.01-1.23-2.82-1.4-4.04-0.39c-6.28,5.17-8.96,14.23-6.7,22.54c2.05,7.52,7.91,13.99,15.65,17.31
					c4.03,1.73,8.55,2.6,13.24,2.6c0.46,0,0.93-0.01,1.4-0.03c1.8-0.06,3.61-0.26,5.43-0.58v47.18c-1.14,2.57-3.07,4.9-5.43,6.77
					c-3.79,3-8.66,4.79-13.1,4.41c-7.15-0.61-13.71-6.17-15.58-13.09c2.9-2.9,5.16-6.45,6.45-10.38c3.12-9.56,0.31-20.62-7-27.53
					c-1.15-1.08-2.97-1.03-4.05,0.11c-1.09,1.16-1.04,2.97,0.11,4.06c5.64,5.33,7.9,14.21,5.49,21.58
					c-2.41,7.38-9.47,13.21-17.17,14.18c-7.7,0.98-15.99-2.92-20.15-9.46c-0.86-1.33-2.62-1.73-3.97-0.88
					c-1.33,0.86-1.73,2.62-0.88,3.96c4.84,7.59,13.61,12.27,22.56,12.27c1.06,0,2.11-0.06,3.16-0.2c3.82-0.48,7.46-1.85,10.68-3.88
					c3.2,8.14,11.08,14.23,19.88,14.98c0.54,0.04,1.09,0.06,1.64,0.06c4.06,0,8.23-1.23,11.95-3.34c1.97-1.11,3.8-2.47,5.43-4.01
					v91.41c-1.67-1.25-3.49-2.3-5.43-3.12c-6.15-2.65-13.31-3.03-19.51-0.54c-10.5,4.21-17.36,16.27-15.6,27.45
					c0.22,1.42,1.44,2.42,2.83,2.42c0.15,0,0.3-0.01,0.45-0.04c1.56-0.25,2.63-1.71,2.39-3.28c-1.37-8.65,3.94-17.98,12.06-21.24
					c5.59-2.24,12.19-1.47,17.38,1.56c2.09,1.22,3.94,2.8,5.43,4.71v22.35c0,0.04,0.01,0.06,0.01,0.09c0,0.04-0.01,0.06-0.01,0.1
					C317.1,467.87,313.09,477.05,308.12,480.55z"/>
				<path class="st2" d="M287.77,396.25c7.76,0,15.48-4.44,19.24-11.24c4.06-7.35,3.33-17.14-1.78-23.8
					c-0.96-1.26-2.76-1.49-4.02-0.53c-1.26,0.96-1.49,2.76-0.53,4.02c3.77,4.91,4.31,12.12,1.31,17.54s-9.39,8.79-15.55,8.22
					c-6.16-0.58-11.82-5.08-13.75-10.96c-0.5-1.5-2.12-2.32-3.62-1.83c-1.5,0.5-2.32,2.12-1.83,3.62
					c2.63,7.98,10.31,14.09,18.67,14.87C286.53,396.23,287.15,396.25,287.77,396.25z"/>
				<path class="st1" d="M468.45,389.39c-0.18-9.49-3.05-18.44-8.05-25.86c-0.55-0.83-1.13-1.63-1.74-2.42
					c-2.93-3.8-6.47-7.12-10.52-9.83c1.26-4.27,1.55-9.01,0.81-13.73c-0.7-4.42-2.25-8.43-4.48-11.8
					c6.46-3.94,11.24-10.88,13.03-19.13c2.48-11.42,0.03-23.13-6.6-32.83c-1.96-2.88-4.29-5.58-6.97-8.05
					c-8.12-7.47-18.31-11.85-28.67-12.66c-3.41-0.26-6.83-0.15-10.21,0.37c1.38-7.31-0.22-15.33-4.35-22.14
					c-1.07-1.76-2.31-3.45-3.72-5.02c-6.62-7.42-16.57-12.39-28-13.98c-6.94-0.96-17.11-1.02-26.13,4.19
					c-8.37,4.83-13.61,13.39-13.62,22.05c-0.01,0.05-0.02,0.1-0.02,0.16v200.31c-0.09,0.41-0.09,0.84,0,1.26v22.6
					c0,0.01,0.01,0.02,0.01,0.03c-0.37,7.23,4.96,18.01,11.09,22.32c1.18,0.83,2.42,1.59,3.73,2.27c6.3,3.36,13.98,5.08,22.21,5.08
					c5.48,0,11.22-0.76,16.99-2.32c12.19-3.29,24.17-13.34,32.85-27.54c5.16-8.44,7.39-17.71,6.32-26.17
					c1.32,0.21,2.64,0.31,3.94,0.31c10.06,0,19.43-5.86,22.56-8.04C461.45,420.1,468.76,405.36,468.45,389.39z M445.63,424.14
					c-6.8,4.74-16.78,8.76-24.7,6.17c-2.33-6.65-6.89-12.26-12.64-15.43c2.92-3.52,4.98-7.77,5.75-12.27
					c1.46-8.54-1.73-17.85-8.12-23.7c-1.17-1.06-2.98-0.98-4.05,0.19c-1.07,1.17-0.99,2.98,0.18,4.05c5,4.56,7.49,11.83,6.35,18.51
					c-1.14,6.67-5.9,12.69-12.13,15.35c-6.23,2.65-13.87,1.9-19.48-1.9c-1.31-0.89-3.09-0.55-3.98,0.76
					c-0.89,1.31-0.55,3.09,0.76,3.98c4.32,2.93,9.58,4.44,14.83,4.44c3.47,0,6.93-0.66,10.11-2.01c1.93-0.82,3.74-1.9,5.41-3.17
					c0.02,0.01,0.04,0.03,0.07,0.04c6.61,2.84,11.6,9.85,12.69,17.85c1,7.25-0.95,15.33-5.5,22.76c-7.92,12.97-18.66,22.08-29.45,25
					c-14.56,3.94-28.82,2.37-38.13-4.19c-1.19-0.84-2.33-2-3.36-3.36c-3.29-4.29-5.55-10.48-5.31-14.11c0-0.04-0.01-0.06-0.01-0.1
					c0-0.03,0.01-0.06,0.01-0.09v-22.35c1.4-1.8,3.13-3.31,5.08-4.49c5.24-3.21,12.01-4.06,17.72-1.78
					c8.13,3.26,13.44,12.59,12.07,21.24c-0.24,1.57,0.83,3.03,2.39,3.28c0.15,0.02,0.3,0.04,0.45,0.04c1.39,0,2.61-1.01,2.83-2.42
					c1.76-11.18-5.09-23.24-15.6-27.45c-6.32-2.53-13.63-2.09-19.86,0.69c-1.8,0.8-3.51,1.79-5.08,2.97V341.2
					c1.53,1.45,3.24,2.75,5.08,3.82c3.8,2.23,8.11,3.54,12.29,3.54c0.55,0,1.1-0.02,1.64-0.06c8.8-0.75,16.67-6.84,19.88-14.98
					c3.22,2.03,6.85,3.39,10.68,3.88c1.05,0.14,2.1,0.2,3.16,0.2c8.94,0,17.72-4.69,22.56-12.27c0.85-1.33,0.46-3.1-0.88-3.96
					c-1.34-0.85-3.11-0.46-3.97,0.88c-4.16,6.55-12.46,10.44-20.15,9.46c-7.7-0.97-14.76-6.8-17.17-14.18
					c-2.41-7.37-0.15-16.25,5.49-21.58c1.15-1.09,1.21-2.9,0.11-4.06c-1.09-1.15-2.9-1.2-4.05-0.11c-7.31,6.91-10.13,17.97-7,27.53
					c1.28,3.94,3.54,7.48,6.45,10.38c-1.88,6.92-8.43,12.48-15.58,13.09c-4.58,0.39-9.62-1.52-13.45-4.69
					c-2.2-1.81-3.99-4.04-5.08-6.48v-47.18c1.7,0.3,3.39,0.49,5.08,0.58c0.58,0.02,1.17,0.04,1.75,0.04c4.69,0,9.21-0.87,13.24-2.6
					c7.74-3.32,13.6-9.79,15.65-17.31c2.27-8.3-0.42-17.37-6.7-22.54c-1.22-1.01-3.02-0.84-4.04,0.39
					c-1.01,1.22-0.83,3.02,0.39,4.04c4.49,3.71,6.47,10.53,4.81,16.6c-1.58,5.76-6.32,10.95-12.37,13.54
					c-3.82,1.63-8.19,2.32-12.73,2.08c-1.68-0.09-3.38-0.32-5.08-0.67v-38.91c0.01-0.11,0.02-0.21,0.01-0.32
					c-0.32-6.78,4-13.95,10.75-17.85c7.62-4.39,16.42-4.31,22.47-3.47c6.94,0.96,13.22,3.29,18.33,6.75
					c2.32,1.57,4.4,3.37,6.19,5.37c6,6.72,8.43,15.85,6.41,23.64c-5.8-3.88-13.82-4.12-19.75-0.3c-1.33,0.86-1.72,2.63-0.86,3.96
					c0.86,1.33,2.63,1.71,3.97,0.86c4.51-2.91,11.08-2.27,14.95,1.45c3.87,3.72,4.78,10.25,2.05,14.88
					c-0.81,1.37-0.35,3.12,1.02,3.93c0.46,0.26,0.96,0.39,1.45,0.39c0.98,0,1.94-0.51,2.47-1.41c3.25-5.52,3.07-12.62-0.06-18.1
					c3.78-0.74,7.64-0.91,11.47-0.51c6.5,0.67,12.91,2.94,18.59,6.68c1.97,1.28,3.85,2.75,5.63,4.39
					c10.35,9.53,14.68,22.46,11.85,35.45c-1.53,7.06-5.68,12.85-11.22,15.86c-0.46-0.42-0.92-0.84-1.4-1.23
					c-5.88-4.61-14.01-5.73-20.22-2.81c-1.43,0.67-2.05,2.38-1.38,3.82c0.68,1.43,2.38,2.05,3.82,1.38
					c4.31-2.03,10.03-1.17,14.25,2.13c3.88,3.04,6.63,8.1,7.55,13.89c0.81,5.13,0.14,10.24-1.88,14.39
					c-2.15,4.41-5.99,7.87-10.27,9.23c-4.46,1.43-9.51,0.56-12.87-2.22c-1.22-1.01-3.03-0.84-4.04,0.38
					c-1.01,1.22-0.84,3.02,0.38,4.04c3.34,2.77,7.67,4.24,12.11,4.23c2.06,0,4.15-0.31,6.18-0.96c5.38-1.72,10.02-5.66,12.96-10.88
					c10.34,7.32,16.62,19.45,16.87,32.84C462.98,403.55,456.59,416.49,445.63,424.14z"/>
				<path class="st1" d="M382.65,377.67c-1.51-0.5-3.13,0.32-3.62,1.83c-1.94,5.88-7.59,10.38-13.75,10.96
					c-6.16,0.58-12.55-2.8-15.55-8.22c-2.99-5.42-2.45-12.63,1.31-17.54c0.96-1.26,0.73-3.06-0.53-4.02
					c-1.26-0.96-3.06-0.73-4.02,0.53c-5.11,6.66-5.84,16.45-1.78,23.8c3.76,6.81,11.48,11.24,19.24,11.24
					c0.62,0,1.24-0.03,1.86-0.09c8.36-0.78,16.04-6.9,18.67-14.87C384.97,379.79,384.16,378.17,382.65,377.67z"/>
			</g>
		</g>
		<path class="st3" d="M262.49,157.81V180c0,7.56,6.13,13.7,13.7,13.7h0c7.56,0,13.7-6.13,13.7-13.7v-21.31
			c0-19.47,15.11-36.07,34.57-36.81c20.45-0.77,37.34,15.64,37.34,35.93v39.31h27.39v-38.28c0-34.52-27.2-63.49-61.71-64.36
			c-18.15-0.46-34.59,6.71-46.42,18.54C269.58,124.5,262.49,140.31,262.49,157.81z"/>
		<g>
			<path class="st2" d="M627.24,306.31c-4.25-0.89-9-2.08-14.23-3.56c-3.46-0.99-5.78-1.53-6.97-1.63l1.33-27.43h12.01l3.26,19.13
				c1.28,1.39,3.58,2.62,6.89,3.71c3.31,1.09,7.09,1.63,11.34,1.63c6.62,0,11.59-1.46,14.9-4.37c3.31-2.91,4.97-6.99,4.97-12.23
				c0-3.46-0.99-6.45-2.97-8.97c-1.98-2.52-4.7-4.79-8.16-6.82c-3.46-2.03-8.21-4.37-14.23-7.04c-8.21-3.76-15-8.23-20.39-13.42
				c-5.39-5.19-8.08-12.23-8.08-21.13c0-5.54,1.43-10.55,4.3-15.05c2.87-4.5,7.14-8.06,12.83-10.68c5.68-2.62,12.63-3.93,20.83-3.93
				c4.84,0,9.12,0.35,12.83,1.04c3.71,0.69,7.73,1.63,12.08,2.82c2.57,0.69,4.5,1.14,5.78,1.34l-0.89,25.95h-11.86l-3.11-18.24
				c-0.89-0.89-2.67-1.75-5.34-2.6c-2.67-0.84-5.63-1.26-8.9-1.26c-5.93,0-10.4,1.36-13.42,4.08c-3.02,2.72-4.52,6.35-4.52,10.9
				c0,3.66,1.11,6.82,3.34,9.49c2.22,2.67,4.92,4.92,8.08,6.75c3.16,1.83,8.16,4.43,14.98,7.78c5.53,2.67,10.28,5.29,14.23,7.86
				c3.95,2.57,7.36,5.91,10.23,10.01c2.87,4.1,4.3,8.92,4.3,14.46c0,5.44-1.36,10.63-4.08,15.57c-2.72,4.94-7.17,9.04-13.35,12.31
				c-6.18,3.26-14.06,4.89-23.65,4.89C636.29,307.65,631.49,307.2,627.24,306.31z"/>
			<path class="st2" d="M701.9,296.16c-6.38-7.66-9.56-18.11-9.56-31.36c0-8.9,1.65-16.61,4.97-23.13
				c3.31-6.52,7.98-11.52,14.01-14.98c6.03-3.46,13-5.19,20.91-5.19c9.88,0,17.5,2.6,22.84,7.78c5.34,5.19,8.1,12.58,8.3,22.17
				c0,6.52-0.4,11.37-1.19,14.53h-48.19c0.39,9,2.52,15.99,6.38,20.98c3.86,4.99,9.34,7.49,16.46,7.49c3.86,0,7.83-0.64,11.94-1.93
				c4.1-1.28,7.34-2.82,9.71-4.6l3.71,8.16c-2.67,2.87-7,5.51-12.97,7.93c-5.98,2.42-12.04,3.63-18.16,3.63
				C717.99,307.65,708.28,303.82,701.9,296.16z M742.6,257.09c0.2-2.77,0.3-4.89,0.3-6.38c0-13.15-4.4-19.72-13.2-19.72
				c-4.84,0-8.6,1.93-11.27,5.78c-2.67,3.86-4.15,10.63-4.45,20.31H742.6z"/>
			<path class="st2" d="M783.82,197.63l-10.97-1.93v-8.01l27.43-3.26h0.3l4,2.82v108.69l10.82,1.19v8.9h-41.96v-8.9l10.38-1.34
				V197.63z"/>
			<path class="st2" d="M836.76,303.05c-2.97-2.87-4.45-7.41-4.45-13.64v-54.42h-9.64v-7.71c0.79-0.3,2.22-0.82,4.3-1.56
				c2.08-0.74,3.66-1.36,4.74-1.85c1.68-1.28,3.11-3.51,4.3-6.67c0.89-2.08,2.52-7.21,4.89-15.42h11.86l0.59,21.8h22.69v11.42
				h-22.54v41.67c0,5.54,0.15,9.44,0.44,11.71c0.3,2.28,0.94,3.73,1.93,4.37c0.99,0.64,2.72,0.96,5.19,0.96
				c2.47,0,5.04-0.27,7.71-0.82c2.67-0.54,4.89-1.21,6.67-2l2.82,8.3c-2.77,2.08-6.82,3.95-12.16,5.63
				c-5.34,1.68-10.53,2.52-15.57,2.52C844.32,307.35,839.73,305.92,836.76,303.05z"/>
			<path class="st2" d="M893.1,197.63l-11.27-1.93v-8.01l27.58-3.26h0.44l3.86,2.82l0.15,33.07l-1.04,12.9
				c3.06-2.77,7.24-5.34,12.53-7.71c5.29-2.37,10.85-3.56,16.68-3.56c6.23,0,11.07,1.16,14.53,3.49c3.46,2.32,5.88,5.86,7.27,10.6
				c1.38,4.74,2.08,11.07,2.08,18.98v40.78l9.49,1.34v8.9h-39v-8.9l8.6-1.34v-40.78c0-5.14-0.35-9.14-1.04-12.01
				c-0.69-2.87-1.95-4.99-3.78-6.38c-1.83-1.38-4.52-2.08-8.08-2.08c-3.07,0-6.21,0.72-9.42,2.15c-3.21,1.43-6.06,3.14-8.53,5.12
				v53.97l9.04,1.34v8.9h-38.4v-8.9l8.3-1.19V197.63z"/>
			<path class="st2" d="M993.71,296.16c-6.38-7.66-9.56-18.11-9.56-31.36c0-8.9,1.65-16.61,4.97-23.13
				c3.31-6.52,7.98-11.52,14.01-14.98c6.03-3.46,13-5.19,20.91-5.19c9.88,0,17.5,2.6,22.83,7.78c5.34,5.19,8.1,12.58,8.3,22.17
				c0,6.52-0.4,11.37-1.19,14.53h-48.19c0.39,9,2.52,15.99,6.38,20.98c3.86,4.99,9.34,7.49,16.46,7.49c3.86,0,7.83-0.64,11.94-1.93
				c4.1-1.28,7.34-2.82,9.71-4.6l3.71,8.16c-2.67,2.87-6.99,5.51-12.97,7.93c-5.98,2.42-12.04,3.63-18.17,3.63
				C1009.8,307.65,1000.09,303.82,993.71,296.16z M1034.42,257.09c0.2-2.77,0.3-4.89,0.3-6.38c0-13.15-4.4-19.72-13.2-19.72
				c-4.84,0-8.6,1.93-11.27,5.78c-2.67,3.86-4.15,10.63-4.45,20.31H1034.42z"/>
			<path class="st2" d="M1067.04,297.27l9.79-1.19v-58.42l-9.49-2.67v-10.23l22.98-3.11h0.44l3.71,2.97v3.26l-0.44,12.01h0.44
				c0.69-1.98,2.32-4.42,4.89-7.34c2.57-2.91,5.81-5.49,9.71-7.71c3.9-2.22,8.13-3.34,12.68-3.34c2.17,0,4.05,0.3,5.63,0.89v22.24
				c-2.97-2.08-6.58-3.11-10.83-3.11c-7.22,0-13.49,1.93-18.83,5.78v48.64l17.2,1.34v8.75h-47.9V297.27z"/>
			<path class="st2" d="M689.59,384.9l-16.01-1.93v-9.19h46.26l17.65,63.76l4.15,17.35l3.56-17.35l17.5-63.76h45.82v9.19
				l-16.16,1.93l11.86,88.52l12.01,1.63v8.9h-47.3v-8.9l13.05-1.48l-6.52-64.95l-2.82-27.14l-5.49,22.84l-21.5,75.03h-15.72
				l-21.95-71.17l-7.56-26.69l-2.22,27.14l-5.63,64.95l14.98,1.48v8.9h-41.22v-8.9l12.46-1.48L689.59,384.9z"/>
			<path class="st2" d="M833.13,415.6l-10.53-2.82v-9.94l27.14-3.26h0.3l4.15,2.97v71.32l9.94,1.19v8.9h-41.37v-8.9l10.38-1.34
				V415.6z M832.53,384.9c-2.08-2.08-3.11-4.74-3.11-8.01c0-3.76,1.19-6.87,3.56-9.34c2.37-2.47,5.54-3.71,9.49-3.71
				c3.95,0,6.97,1.06,9.05,3.19c2.08,2.13,3.11,4.77,3.11,7.93c0,3.95-1.19,7.12-3.56,9.49c-2.37,2.37-5.69,3.56-9.93,3.56h-0.15
				C837.43,388.02,834.61,386.98,832.53,384.9z"/>
			<path class="st2" d="M883.1,415.6l-9.49-2.67V402.7l24.61-3.11h0.44l3.71,2.97v5.78l-0.15,3.56c3.46-3.26,7.96-6.08,13.49-8.45
				c5.54-2.37,11.12-3.56,16.76-3.56c6.03,0,10.75,1.11,14.16,3.34c3.41,2.22,5.86,5.71,7.34,10.45c1.48,4.74,2.22,11.17,2.22,19.28
				v40.93l9.04,1.19v8.9h-38.26v-8.9l8.01-1.19v-40.93c0-5.14-0.35-9.17-1.04-12.09c-0.69-2.91-1.95-5.04-3.78-6.38
				c-1.83-1.34-4.42-2-7.78-2c-5.63,0-11.66,2.42-18.09,7.26v53.97l8.9,1.34v8.9h-38.7v-8.9l8.6-1.34V415.6z"/>
			<path class="st2" d="M990.3,481.21c-4.84-2.91-8.7-7.44-11.57-13.57c-2.87-6.13-4.3-13.79-4.3-22.98c0-8.3,1.7-15.89,5.12-22.76
				c3.41-6.87,8.43-12.33,15.05-16.39c6.62-4.05,14.58-6.08,23.87-6.08c3.76,0,7.32,0.4,10.68,1.19v-25.06l-14.53-2.08v-8.15
				l30.55-2.97h0.45l4.15,3.11v109.43h8.01v8.45c-7.12,1.48-13,2.23-17.65,2.23c-3.17,0-5.41-0.52-6.75-1.56
				c-1.34-1.04-2-3.09-2-6.15v-4.15c-2.57,3.46-6.08,6.3-10.53,8.53c-4.45,2.23-9.14,3.34-14.09,3.34
				C1000.63,485.59,995.15,484.13,990.3,481.21z M1023.15,471.28c2.52-1.34,4.52-2.94,6-4.82v-53.97c-0.69-0.99-2.15-1.83-4.37-2.52
				c-2.23-0.69-4.62-1.04-7.19-1.04c-6.33,0-11.39,2.74-15.2,8.23c-3.81,5.49-5.71,14.26-5.71,26.32c0,10.08,1.63,17.57,4.89,22.46
				c3.26,4.89,7.56,7.34,12.9,7.34C1017.73,473.28,1020.63,472.61,1023.15,471.28z"/>
		</g>
	</g>
</g>
</svg>
